<svg width="100" height="115" viewBox="0 0 100 115" xmlns="http://www.w3.org/2000/svg">
  <defs>
    <style>
      .demon-dark { fill: #3d3021; }
      .demon-white { fill: #ffffff; }
    </style>
  </defs>
  
  <polygon 
    points="50,5 95,30 95,85 50,110 5,85 5,30" 
    class="demon-dark"
    stroke="#3d3021" 
    stroke-width="4"
    fill="none"
  />
  
  <path d="M 50 90 L 30 65 L 30 52 Q 30 40 50 40 Q 70 40 70 52 L 70 65 Z" class="demon-dark"/>
  <path d="M 22 55 Q 15 35 22 28 Q 25 25 30 28 L 34 42 Q 32 52 30 58" class="demon-dark"/>
  <path d="M 78 55 Q 85 35 78 28 Q 75 25 70 28 L 66 42 Q 68 52 70 58" class="demon-dark"/>
  <path d="M 38 60 L 45 63 L 38 66 Z" class="demon-white"/>
  <path d="M 62 60 L 55 63 L 62 66 Z" class="demon-white"/>
  <path d="M 35 72 Q 50 82 65 72" fill="none" stroke="#ffffff" stroke-width="3" stroke-linecap="round"/>
  <rect x="43" y="75" width="4" height="5" class="demon-white" rx="0.5"/>
  <rect x="49" y="75" width="4" height="5" class="demon-white" rx="0.5"/>
  <rect x="55" y="75" width="4" height="5" class="demon-white" rx="0.5"/>
  <path d="M 38 80 L 50 90 L 62 80" fill="none" stroke="#3d3021" stroke-width="5" stroke-linecap="round" stroke-linejoin="round"/>
</svg>
